<svg width="525" height="294" viewBox="0 0 525 294" fill="none" xmlns="http://www.w3.org/2000/svg">
<g clip-path="url(#clip0)">
<mask id="path-1-inside-1" fill="white">
<path d="M235.5 125V117H334.5L372.5 0.5L408 117H525L430 184L466 294L401.5 254L408 250L450 273L419.5 181L496.5 125H401.5L372.5 32.5L341 125H235.5Z"/>
</mask>
<path d="M235.5 125V117H334.5L372.5 0.5L408 117H525L430 184L466 294L401.5 254L408 250L450 273L419.5 181L496.5 125H401.5L372.5 32.5L341 125H235.5Z" fill="url(#paint0_linear)"/>
<path d="M235.5 125H234.5V126H235.5V125ZM235.5 117V116H234.5V117H235.5ZM334.5 117V118H335.226L335.451 117.31L334.5 117ZM372.5 0.5L373.457 0.208512L372.532 -2.82421L371.549 0.189899L372.5 0.5ZM408 117L407.043 117.291L407.259 118H408V117ZM525 117L525.576 117.817L528.153 116H525V117ZM430 184L429.424 183.183L428.82 183.609L429.05 184.311L430 184ZM466 294L465.473 294.85L467.803 296.295L466.95 293.689L466 294ZM401.5 254L400.976 253.148L399.597 253.997L400.973 254.85L401.5 254ZM408 250L408.48 249.123L407.971 248.844L407.476 249.148L408 250ZM450 273L449.52 273.877L451.749 275.098L450.949 272.685L450 273ZM419.5 181L418.912 180.191L418.321 180.621L418.551 181.315L419.5 181ZM496.5 125L497.088 125.809L499.575 124H496.5V125ZM401.5 125L400.546 125.299L400.766 126H401.5V125ZM372.5 32.5L373.454 32.2008L372.539 29.2825L371.553 32.1776L372.5 32.5ZM341 125V126H341.716L341.947 125.322L341 125ZM236.5 125V117H234.5V125H236.5ZM235.5 118H334.5V116H235.5V118ZM335.451 117.31L373.451 0.810101L371.549 0.189899L333.549 116.69L335.451 117.31ZM371.543 0.791488L407.043 117.291L408.957 116.709L373.457 0.208512L371.543 0.791488ZM408 118H525V116H408V118ZM524.424 116.183L429.424 183.183L430.576 184.817L525.576 117.817L524.424 116.183ZM429.05 184.311L465.05 294.311L466.95 293.689L430.95 183.689L429.05 184.311ZM466.527 293.15L402.027 253.15L400.973 254.85L465.473 294.85L466.527 293.15ZM402.024 254.852L408.524 250.852L407.476 249.148L400.976 253.148L402.024 254.852ZM407.52 250.877L449.52 273.877L450.48 272.123L408.48 249.123L407.52 250.877ZM450.949 272.685L420.449 180.685L418.551 181.315L449.051 273.315L450.949 272.685ZM420.088 181.809L497.088 125.809L495.912 124.191L418.912 180.191L420.088 181.809ZM496.5 124H401.5V126H496.5V124ZM402.454 124.701L373.454 32.2008L371.546 32.7992L400.546 125.299L402.454 124.701ZM371.553 32.1776L340.053 124.678L341.947 125.322L373.447 32.8224L371.553 32.1776ZM341 124H235.5V126H341V124Z" fill="#A0711F" mask="url(#path-1-inside-1)"/>
<path d="M373 65L395.676 134.789H469.057L409.69 177.921L432.366 247.711L373 204.579L313.634 247.711L336.31 177.921L276.943 134.789H350.324L373 65Z" fill="url(#paint1_linear)"/>
<path fill-rule="evenodd" clip-rule="evenodd" d="M193.918 64.2875C195.395 69.9269 196.092 75.7423 195.99 81.5713C195.946 89.8101 194.546 97.9852 191.846 105.768C189.424 108.964 186.577 111.813 183.385 114.238C179.586 114.238 177.168 113.201 176.132 111.127C175.86 110.519 175.726 109.859 175.74 109.193C175.754 108.528 175.916 107.874 176.213 107.278C176.511 106.683 176.937 106.161 177.46 105.75C177.984 105.34 178.592 105.051 179.24 104.904C180.818 104.092 182.099 102.803 182.905 101.221C183.711 99.6397 183.999 97.8444 183.73 96.0895V91.4231V87.2749C183.477 82.2829 182.367 77.3718 180.449 72.7566L174.06 59.9666C170.847 55.2576 166.88 51.1114 162.318 47.695L149.022 37.6707C134.382 30.5737 118.32 26.9088 102.053 26.9546C95.9096 26.9131 89.7773 27.4923 83.7496 28.6831C66.0995 33.2402 49.4239 40.9705 34.5363 51.4975C23.3346 61.0732 16.3292 74.6623 15.0236 89.3489V95.7441C15.0342 104.478 17.617 113.015 22.4488 120.287C27.3607 127.503 33.9347 133.431 41.6161 137.571C50.9163 145.83 61.8643 152.016 73.7342 155.718C75.2889 157.193 77.1041 158.365 79.0872 159.175C81.1204 159.925 83.0848 160.851 84.9582 161.941L113.105 176.978C122.689 182.559 130.939 190.168 137.28 199.273C139.547 205.122 140.775 211.322 140.906 217.594C141.089 220.506 140.695 223.425 139.747 226.184C138.799 228.942 137.315 231.486 135.38 233.668C130.831 240.536 124.415 245.958 116.889 249.296C109.363 252.634 101.04 253.748 92.9015 252.507C92.4985 252.309 92.0555 252.206 91.6065 252.206C91.1574 252.206 90.7142 252.309 90.3112 252.507C89.472 252.797 88.5602 252.797 87.7211 252.507L75.9791 248.705C71.933 247.395 68.1378 245.408 64.7549 242.829C62.3068 242.207 60.14 240.776 58.6046 238.769C57.0692 236.762 56.2551 234.295 56.2939 231.767C56.2151 228.478 56.9256 225.218 58.3659 222.261L62.6829 213.446C63.6545 211.813 64.9824 210.421 66.5672 209.373C68.1519 208.325 69.9526 207.65 71.8348 207.397C76.6746 207.985 81.4275 209.145 85.9942 210.854L99.9814 215.693C102.572 217.076 103.78 220.187 103.435 225.199C102.725 226.691 101.917 228.134 101.017 229.52C100.275 230.793 99.1158 231.77 97.7365 232.286C94.5701 231.982 91.4445 231.344 88.4117 230.384C85.2871 229.409 82.0018 229.057 78.7418 229.347C78.6669 229.689 78.6669 230.043 78.7418 230.384C78.7418 231.421 79.778 232.458 81.8501 233.495C88.3346 236.062 95.2529 237.353 102.226 237.298C110.478 237.639 118.648 235.534 125.71 231.249C127.613 229.413 128.95 227.069 129.562 224.496C130.174 221.922 130.036 219.227 129.164 216.73C122.993 206.539 114.156 198.231 103.607 192.706L73.2162 175.422L60.956 169.891C56.8722 167.923 52.9963 165.549 49.3866 162.805L39.3712 157.793C36.1681 156.515 33.2377 154.638 30.7373 152.262C28.0939 149.872 25.3273 147.622 22.4488 145.521C15.3477 140.067 10.0524 132.599 7.2531 124.089C3.93741 117.735 1.82953 110.819 1.03668 103.694C0.333534 101.756 -0.017311 99.7072 0.000656751 97.645C0.144168 94.4128 0.725163 91.2151 1.72754 88.1392C2.60828 85.1513 3.18663 82.0825 3.45416 78.9788C3.81845 76.3545 4.69896 73.8284 6.04449 71.5467L9.498 64.6333C17.0814 52.5048 26.7923 41.848 38.1626 33.1767C52.9931 21.8176 70.3537 14.2264 88.7571 11.0536L101.881 10.0166H115.35C121.187 9.87566 127.011 10.6336 132.617 12.2636L149.885 17.4485C160.525 21.9531 170.199 28.4667 178.377 36.6334C186.272 44.0352 191.698 53.6908 193.918 64.2875ZM362.325 159.015C353.548 157.664 340.314 156.314 322.759 154.829C286.119 153.479 259.742 152.803 243.628 152.803C226.478 152.803 210.679 152.803 196.095 154.289C194.88 154.289 193.935 155.504 193.395 157.394C192.242 164.002 191.521 170.677 191.234 177.378C190.86 181.43 191.406 185.515 192.833 189.326C194.259 193.137 196.528 196.577 199.471 199.388C203.274 202.478 208.079 204.064 212.975 203.844C215.891 203.879 218.784 203.328 221.482 202.223C225.851 200.6 229.843 198.116 233.224 194.923C233.728 191.157 235.072 187.528 237.177 184.299C240.683 178.709 246.084 174.489 252.447 172.371C258.189 170.188 264.291 169.047 270.454 169.003C275.405 168.94 280.314 169.896 284.859 171.81L287.74 176.721C287.817 177.936 287.817 179.155 287.74 180.37V190.333C287.454 192.885 288.03 195.458 289.383 197.662C290.735 199.866 292.788 201.579 295.231 202.542C297.981 203.092 300.78 203.374 303.586 203.384C308.139 203.269 312.671 202.752 317.127 201.84C318.28 201.84 319 202.542 319 204.506C319 206.471 317.992 208.155 316.839 208.436C310.202 210.094 303.379 210.943 296.528 210.961C287.78 211.32 279.116 209.173 271.606 204.787C264.705 207.586 257.328 209.109 249.854 209.278C244.807 209.312 239.84 208.053 235.449 205.629C234.53 205.141 233.853 204.085 233.446 202.518C230.002 205.692 225.786 207.92 221.212 208.975C217.907 208.975 214.668 209.635 211.587 210.263C210.263 210.533 208.967 210.797 207.708 211C193.259 207.489 184.752 201.278 181.917 192.501C181.103 189.895 180.064 187.365 178.811 184.94C178.669 183.323 178.669 181.696 178.811 180.079C178.855 176.056 179.171 172.041 179.756 168.061C180.701 161.715 181.241 157.664 181.376 156.044L180.026 154.829H152.344H125.336C106.846 155.134 88.3756 153.459 70.2416 149.833C68.081 147.942 67.0007 146.322 67.0007 144.972C66.9919 144.545 67.0713 144.121 67.2339 143.726C67.3965 143.331 67.6391 142.973 67.946 142.676C68.8576 141.58 69.9903 140.689 71.2702 140.06C72.55 139.432 73.9482 139.081 75.373 139.031C78.6995 139.425 81.9133 140.481 84.8255 142.136C87.7523 143.877 91.1597 144.634 94.5482 144.297C108.994 146.357 123.573 147.35 138.165 147.267H181.917C183.402 147.267 184.887 145.782 186.238 142.946C188.039 136.881 190.203 130.929 192.719 125.123C195.228 119.329 197.348 113.375 199.066 107.299C199.368 106.591 199.879 105.991 200.53 105.581C201.182 105.171 201.943 104.97 202.712 105.004C203.873 105.007 205.012 105.322 206.01 105.916C207.007 106.509 207.827 107.36 208.384 108.379C206.73 118.32 204.154 128.084 200.687 137.545C198.975 139.775 198.2 142.585 198.526 145.377H199.336H264.964C290.756 145.377 312.767 146.457 330.726 148.212L347.471 149.698C352.998 150.437 358.298 152.372 363 155.369L362.325 159.015ZM262.531 175.879C268.725 175.879 272.327 177.423 273.623 180.37L273.911 180.65C273.698 181.697 273.196 182.668 272.46 183.459C271.725 184.25 270.782 184.831 269.734 185.141C268.055 186.013 266.77 187.464 266.132 189.21L263.395 196.367C262.172 198.779 260.139 200.71 257.633 201.84H255.616C254.06 202.059 252.475 201.706 251.171 200.85C249.866 199.994 248.935 198.697 248.558 197.209C248.362 196.189 248.362 195.142 248.558 194.122C249.353 190.105 250.761 186.226 252.735 182.615C255.381 179.618 258.746 177.304 262.531 175.879ZM359.665 224.286C358.842 225.179 357.971 226.027 357.053 226.828C352.845 228.391 348.206 228.391 343.998 226.828C342.128 225.161 340.67 223.09 339.739 220.776C338.809 218.462 338.429 215.967 338.631 213.485C338.795 209.497 339.183 205.522 339.791 201.576C339.791 200.142 338.631 199.281 336.89 198.994C332.442 200.241 327.871 201.011 323.255 201.289C321.37 201.289 320.644 201.289 320.79 200.142C320.186 198.511 319.459 196.928 318.614 195.407C317.737 193.87 317.24 192.149 317.163 190.385C316.946 189.441 316.946 188.46 317.163 187.516C317.954 184.919 318.924 182.378 320.064 179.912C320.829 177.439 322.17 175.178 323.981 173.312C325.153 172.896 326.435 172.896 327.607 173.312C329.154 174.269 330.025 177.138 330.218 181.92C330.218 185.938 331.524 187.946 333.844 187.946C334.901 188.115 335.979 188.115 337.035 187.946C339.154 186.585 341.617 185.839 344.143 185.794C345.471 185.766 346.78 186.115 347.914 186.799C348.807 187.355 349.524 188.147 349.985 189.085C350.447 190.023 350.634 191.07 350.525 192.107C350.643 193.3 350.643 194.501 350.525 195.694C350.467 196.793 350.467 197.895 350.525 198.994C350.525 201.943 350.143 204.199 349.885 205.718C349.754 206.49 349.655 207.072 349.655 207.459C349.494 209.198 349.752 210.949 350.407 212.57C351.063 214.191 352.098 215.635 353.426 216.785C354.384 217.498 355.566 217.854 356.763 217.789H358.605C359.133 217.088 359.743 216.326 360.437 215.509C363.032 212.64 365.323 209.496 367.273 206.129C367.273 204.37 365.849 202.904 363.57 201.585C361.609 200.656 359.897 199.247 358.586 197.481C357.694 195.614 357.254 193.552 357.304 191.471C357.501 187.816 358.221 184.211 359.44 180.772L371.687 166.115C372.774 165.962 373.876 165.962 374.962 166.115C376.829 166.19 378.646 166.754 380.241 167.754C381.836 168.755 383.156 170.158 384.076 171.831C385.263 173.762 385.904 175.995 385.927 178.28C385.752 181.04 385.176 183.757 384.219 186.342C383.393 188.856 382.867 191.465 382.652 194.11C382.703 195.866 383.204 197.578 384.104 199.07C385.004 200.563 386.272 201.785 387.779 202.611L400.737 214.776C402.846 216.589 404.576 218.822 405.824 221.341C407.073 223.86 407.813 226.613 408 229.434C407.868 230.325 407.678 231.207 407.43 232.072C405.843 235.878 403.404 239.243 400.31 241.892C397.225 244.621 393.27 246.083 389.203 245.996C386.111 245.706 383.083 244.914 380.231 243.651C377.476 242.371 374.617 241.341 371.687 240.573C370.693 240.041 369.942 239.128 369.596 238.032C369.25 236.935 369.336 235.742 369.836 234.71C369.903 234.145 370.108 233.607 370.432 233.146C370.755 232.685 371.187 232.315 371.687 232.072C372.638 231.567 373.641 231.173 374.678 230.899H376.102C378.728 231.211 381.255 232.112 383.507 233.538C385.68 234.909 388.103 235.807 390.627 236.176H392.62C393.639 235.384 394.427 234.319 394.899 233.098C395.705 231.513 396.144 229.757 396.18 227.968C396.212 227.345 396.113 226.722 395.892 226.14C395.671 225.559 395.333 225.033 394.899 224.597L378.095 211.699L371.687 215.07C366.503 220.533 362.495 223.573 359.665 224.286Z" fill="url(#paint2_linear)"/>
<path d="M195.99 81.5713L194.99 81.5538L194.99 81.5659L195.99 81.5713ZM193.918 64.2875L192.939 64.4926L192.944 64.5168L192.951 64.5408L193.918 64.2875ZM191.846 105.768L192.643 106.373L192.739 106.246L192.791 106.096L191.846 105.768ZM183.385 114.238V115.238H183.721L183.989 115.034L183.385 114.238ZM176.132 111.127L175.22 111.535L175.228 111.555L175.238 111.573L176.132 111.127ZM175.74 109.193L176.74 109.214L175.74 109.193ZM176.213 107.278L175.319 106.831V106.831L176.213 107.278ZM177.46 105.75L178.077 106.537V106.537L177.46 105.75ZM179.24 104.904L179.461 105.88L179.585 105.852L179.699 105.793L179.24 104.904ZM182.905 101.221L183.796 101.675L182.905 101.221ZM183.73 96.0895H182.73V96.1658L182.742 96.2412L183.73 96.0895ZM183.73 87.2749H184.73V87.2496L184.729 87.2243L183.73 87.2749ZM180.449 72.7566L181.373 72.3729L181.359 72.3408L181.344 72.3098L180.449 72.7566ZM174.06 59.9666L174.955 59.5197L174.924 59.459L174.886 59.4029L174.06 59.9666ZM162.318 47.695L161.716 48.4935L161.719 48.4954L162.318 47.695ZM149.022 37.6707L149.624 36.8722L149.546 36.8134L149.458 36.7708L149.022 37.6707ZM102.053 26.9546L102.047 27.9546L102.056 27.9546L102.053 26.9546ZM83.7496 28.6831L83.5558 27.702L83.5275 27.7076L83.4996 27.7148L83.7496 28.6831ZM34.5363 51.4975L33.9589 50.681L33.9214 50.7075L33.8865 50.7373L34.5363 51.4975ZM15.0236 89.3489L14.0275 89.2603L14.0236 89.3045V89.3489H15.0236ZM15.0236 95.7441H14.0236L14.0236 95.7453L15.0236 95.7441ZM22.4488 120.287L21.6159 120.84L21.6222 120.85L22.4488 120.287ZM41.6161 137.571L42.2801 136.823L42.193 136.746L42.0905 136.69L41.6161 137.571ZM73.7342 155.718L74.4224 154.993L74.2538 154.833L74.032 154.764L73.7342 155.718ZM79.0872 159.175L78.7091 160.101L78.725 160.108L78.7411 160.114L79.0872 159.175ZM84.9582 161.941L84.4553 162.805L84.471 162.814L84.487 162.823L84.9582 161.941ZM113.105 176.978L113.608 176.113L113.592 176.104L113.576 176.096L113.105 176.978ZM137.28 199.273L138.212 198.912L138.169 198.8L138.1 198.702L137.28 199.273ZM140.906 217.594L139.906 217.615L139.907 217.636L139.908 217.657L140.906 217.594ZM139.747 226.184L140.693 226.509V226.509L139.747 226.184ZM135.38 233.668L134.632 233.005L134.585 233.057L134.546 233.116L135.38 233.668ZM116.889 249.296L117.294 250.21L116.889 249.296ZM92.9015 252.507L92.46 253.405L92.5984 253.473L92.7508 253.496L92.9015 252.507ZM90.3112 252.507L90.6375 253.453L90.6966 253.432L90.7527 253.405L90.3112 252.507ZM87.7211 252.507L88.0475 251.562L88.0384 251.559L88.0292 251.556L87.7211 252.507ZM75.9791 248.705L76.2872 247.754L76.2872 247.754L75.9791 248.705ZM64.7549 242.829L65.3612 242.033L65.1989 241.91L65.0012 241.859L64.7549 242.829ZM58.6046 238.769L57.8103 239.377L58.6046 238.769ZM56.2939 231.767L57.2937 231.782L57.294 231.763L57.2936 231.743L56.2939 231.767ZM58.3659 222.261L57.4678 221.821L57.4669 221.823L58.3659 222.261ZM62.6829 213.446L61.8234 212.935L61.8027 212.97L61.7848 213.006L62.6829 213.446ZM66.5672 209.373L67.1186 210.207H67.1186L66.5672 209.373ZM71.8348 207.397L71.9553 206.404L71.8283 206.389L71.7015 206.406L71.8348 207.397ZM85.9942 210.854L85.6438 211.79L85.6555 211.795L85.6673 211.799L85.9942 210.854ZM99.9814 215.693L100.452 214.811L100.383 214.774L100.308 214.748L99.9814 215.693ZM103.435 225.199L104.338 225.629L104.419 225.457L104.433 225.268L103.435 225.199ZM101.017 229.52L100.179 228.975L100.166 228.995L100.154 229.016L101.017 229.52ZM97.7365 232.286L97.6409 233.281L97.8706 233.303L98.0868 233.222L97.7365 232.286ZM88.4117 230.384L88.7135 229.431L88.7096 229.43L88.4117 230.384ZM78.7418 229.347L78.6531 228.351L77.9221 228.416L77.765 229.133L78.7418 229.347ZM78.7418 230.384H79.7418V230.276L79.7186 230.17L78.7418 230.384ZM81.8501 233.495L81.4026 234.389L81.4415 234.409L81.482 234.425L81.8501 233.495ZM102.226 237.298L102.267 236.299L102.243 236.298L102.218 236.298L102.226 237.298ZM125.71 231.249L126.229 232.103L126.324 232.046L126.405 231.968L125.71 231.249ZM129.562 224.496L130.535 224.727V224.727L129.562 224.496ZM129.164 216.73L130.108 216.401L130.073 216.302L130.019 216.212L129.164 216.73ZM103.607 192.706L103.113 193.575L103.128 193.583L103.143 193.591L103.607 192.706ZM73.2162 175.422L73.7106 174.553L73.67 174.529L73.6274 174.51L73.2162 175.422ZM60.956 169.891L60.5218 170.792L60.5332 170.798L60.5448 170.803L60.956 169.891ZM49.3866 162.805L49.9917 162.009L49.9175 161.952L49.8341 161.911L49.3866 162.805ZM39.3712 157.793L39.8188 156.898L39.7809 156.879L39.7416 156.864L39.3712 157.793ZM30.7373 152.262L31.4262 151.537L31.4172 151.528L31.408 151.52L30.7373 152.262ZM22.4488 145.521L21.8397 146.314L21.8495 146.322L21.8594 146.329L22.4488 145.521ZM7.2531 124.089L8.20303 123.777L8.17748 123.699L8.13967 123.627L7.2531 124.089ZM1.03668 103.694L2.03055 103.584L2.01737 103.465L1.97675 103.353L1.03668 103.694ZM0.000656751 97.645L-0.998359 97.6007L-0.99915 97.6185L-0.999305 97.6363L0.000656751 97.645ZM1.72754 88.1392L2.67833 88.449L2.68273 88.4355L2.68674 88.4219L1.72754 88.1392ZM3.45416 78.9788L2.46366 78.8413L2.46009 78.867L2.45786 78.8929L3.45416 78.9788ZM6.04449 71.5467L6.90587 72.0546L6.92354 72.0247L6.93908 71.9935L6.04449 71.5467ZM9.498 64.6333L8.6501 64.1031L8.62476 64.1436L8.60341 64.1864L9.498 64.6333ZM38.1626 33.1767L38.769 33.9719L38.7707 33.9706L38.1626 33.1767ZM88.7571 11.0536L88.6784 10.0567L88.6325 10.0603L88.5872 10.0681L88.7571 11.0536ZM101.881 10.0166V9.01658H101.841L101.802 9.01969L101.881 10.0166ZM115.35 10.0166V11.0166H115.362L115.374 11.0163L115.35 10.0166ZM132.617 12.2636L132.905 11.3058L132.897 11.3033L132.617 12.2636ZM149.885 17.4485L150.275 16.5276L150.225 16.5064L150.173 16.4907L149.885 17.4485ZM178.377 36.6334L177.67 37.341L177.682 37.3522L177.693 37.3629L178.377 36.6334ZM322.759 154.829L322.844 153.832L322.82 153.83L322.796 153.829L322.759 154.829ZM362.325 159.015L362.173 160.003L363.132 160.15L363.308 159.197L362.325 159.015ZM196.095 154.289V155.289H196.146L196.197 155.283L196.095 154.289ZM193.395 157.394L192.433 157.12L192.419 157.17L192.409 157.223L193.395 157.394ZM191.234 177.378L192.23 177.47L192.232 177.446L192.233 177.421L191.234 177.378ZM199.471 199.388L198.78 200.111L198.809 200.138L198.84 200.164L199.471 199.388ZM212.975 203.844L212.987 202.844L212.958 202.843L212.93 202.845L212.975 203.844ZM221.482 202.223L221.134 201.286L221.118 201.292L221.103 201.298L221.482 202.223ZM233.224 194.923L233.911 195.65L234.169 195.407L234.216 195.056L233.224 194.923ZM237.177 184.299L238.015 184.845L238.02 184.838L238.025 184.83L237.177 184.299ZM252.447 172.371L252.763 173.32L252.783 173.313L252.802 173.305L252.447 172.371ZM270.454 169.003L270.461 170.003L270.467 170.003L270.454 169.003ZM284.859 171.81L285.722 171.304L285.554 171.017L285.247 170.888L284.859 171.81ZM287.74 176.721L288.738 176.658L288.723 176.42L288.603 176.215L287.74 176.721ZM287.74 180.37L286.742 180.306L286.74 180.338V180.37H287.74ZM287.74 190.333L288.734 190.444L288.74 190.389V190.333H287.74ZM289.383 197.662L290.235 197.139L289.383 197.662ZM295.231 202.542L294.865 203.472L294.947 203.505L295.035 203.522L295.231 202.542ZM303.586 203.384L303.583 204.384L303.597 204.384L303.612 204.383L303.586 203.384ZM317.127 201.84V200.84H317.026L316.927 200.86L317.127 201.84ZM316.839 208.436L316.603 207.464L316.597 207.465L316.839 208.436ZM296.528 210.961L296.525 209.961L296.506 209.962L296.487 209.962L296.528 210.961ZM271.606 204.787L272.111 203.924L271.686 203.676L271.23 203.86L271.606 204.787ZM249.854 209.278L249.861 210.278L249.869 210.277L249.877 210.277L249.854 209.278ZM235.449 205.629L235.932 204.754L235.925 204.75L235.918 204.746L235.449 205.629ZM233.446 202.518L234.414 202.267L233.996 200.652L232.769 201.782L233.446 202.518ZM221.212 208.975V209.975H221.326L221.437 209.949L221.212 208.975ZM211.587 210.263L211.388 209.283L211.587 210.263ZM207.708 211L207.472 211.972L207.668 212.019L207.868 211.987L207.708 211ZM181.917 192.501L180.962 192.799L180.965 192.809L181.917 192.501ZM178.811 184.94L177.814 185.027L177.832 185.224L177.922 185.399L178.811 184.94ZM178.811 180.079L179.807 180.166L179.81 180.128L179.811 180.09L178.811 180.079ZM179.756 168.061L178.767 167.914L178.767 167.916L179.756 168.061ZM181.376 156.044L182.373 156.127L182.414 155.633L182.045 155.301L181.376 156.044ZM180.026 154.829L180.695 154.086L180.41 153.829H180.026V154.829ZM125.336 154.829V153.829H125.328L125.32 153.829L125.336 154.829ZM70.2416 149.833L69.5831 150.585L69.7839 150.761L70.0455 150.813L70.2416 149.833ZM67.0007 144.972H68.0007V144.961L68.0004 144.951L67.0007 144.972ZM67.2339 143.726L68.1586 144.106L68.1586 144.106L67.2339 143.726ZM67.946 142.676L68.6414 143.395L68.6803 143.357L68.7149 143.316L67.946 142.676ZM75.373 139.031L75.4908 138.038L75.4144 138.029L75.3375 138.031L75.373 139.031ZM84.8255 142.136L85.3367 141.277L85.3282 141.272L85.3197 141.267L84.8255 142.136ZM94.5482 144.297L94.6893 143.307L94.5695 143.29L94.4491 143.302L94.5482 144.297ZM138.165 147.267V146.267L138.159 146.267L138.165 147.267ZM186.238 142.946L187.141 143.376L187.174 143.306L187.196 143.231L186.238 142.946ZM192.719 125.123L193.637 125.52L193.637 125.52L192.719 125.123ZM199.066 107.299L198.146 106.907L198.121 106.966L198.104 107.027L199.066 107.299ZM200.53 105.581L201.063 106.427V106.427L200.53 105.581ZM202.712 105.004L202.668 106.003L202.689 106.004L202.709 106.004L202.712 105.004ZM206.01 105.916L205.498 106.775L206.01 105.916ZM208.384 108.379L209.37 108.543L209.427 108.203L209.261 107.9L208.384 108.379ZM200.687 137.545L201.48 138.154L201.573 138.033L201.626 137.889L200.687 137.545ZM198.526 145.377L197.533 145.493L197.636 146.377H198.526V145.377ZM330.726 148.212L330.629 149.208L330.638 149.208L330.726 148.212ZM347.471 149.698L347.603 148.707L347.581 148.704L347.559 148.702L347.471 149.698ZM363 155.369L363.983 155.551L364.106 154.888L363.537 154.526L363 155.369ZM273.623 180.37L272.708 180.772L272.786 180.95L272.925 181.086L273.623 180.37ZM262.531 175.879V174.879H262.349L262.179 174.943L262.531 175.879ZM273.911 180.65L274.891 180.85L275 180.315L274.609 179.934L273.911 180.65ZM272.46 183.459L271.728 182.777L272.46 183.459ZM269.734 185.141L269.45 184.182L269.358 184.209L269.273 184.253L269.734 185.141ZM266.132 189.21L267.066 189.568L267.069 189.561L267.072 189.554L266.132 189.21ZM263.395 196.367L264.287 196.82L264.311 196.773L264.329 196.724L263.395 196.367ZM257.633 201.84V202.84H257.848L258.044 202.752L257.633 201.84ZM255.616 201.84V200.84H255.546L255.477 200.85L255.616 201.84ZM251.171 200.85L250.622 201.686H250.622L251.171 200.85ZM248.558 197.209L247.575 197.397L247.581 197.426L247.588 197.455L248.558 197.209ZM248.558 194.122L247.577 193.928L247.575 193.934L248.558 194.122ZM252.735 182.615L251.986 181.953L251.912 182.037L251.858 182.135L252.735 182.615ZM357.053 226.828L357.401 227.765L357.572 227.701L357.71 227.581L357.053 226.828ZM359.665 224.286L359.421 223.316L359.131 223.389L358.929 223.609L359.665 224.286ZM343.998 226.828L343.333 227.574L343.473 227.7L343.65 227.765L343.998 226.828ZM339.739 220.776L340.667 220.403V220.403L339.739 220.776ZM338.631 213.485L339.628 213.566L339.629 213.546L339.63 213.526L338.631 213.485ZM339.791 201.576L340.78 201.729L340.791 201.653V201.576H339.791ZM336.89 198.994L337.053 198.007L336.834 197.971L336.62 198.031L336.89 198.994ZM323.255 201.289V202.289H323.286L323.316 202.288L323.255 201.289ZM320.79 200.142L321.782 200.267L321.812 200.024L321.727 199.795L320.79 200.142ZM318.614 195.407L319.488 194.921L319.482 194.911L318.614 195.407ZM317.163 190.385L318.162 190.342L318.158 190.25L318.138 190.161L317.163 190.385ZM317.163 187.516L316.207 187.225L316.197 187.258L316.189 187.292L317.163 187.516ZM320.064 179.912L320.972 180.331L321 180.271L321.02 180.207L320.064 179.912ZM323.981 173.312L323.646 172.37L323.426 172.448L323.263 172.616L323.981 173.312ZM327.607 173.312L328.133 172.462L328.042 172.405L327.942 172.37L327.607 173.312ZM330.218 181.92H331.218V181.9L331.217 181.88L330.218 181.92ZM333.844 187.946L334.002 186.959L333.924 186.946H333.844V187.946ZM337.035 187.946L337.193 188.934L337.4 188.901L337.576 188.788L337.035 187.946ZM344.143 185.794L344.161 186.794L344.164 186.794L344.143 185.794ZM347.914 186.799L348.443 185.95L348.437 185.946L348.431 185.942L347.914 186.799ZM349.985 189.085L350.883 188.643V188.643L349.985 189.085ZM350.525 192.107L349.531 192.003L349.52 192.104L349.53 192.205L350.525 192.107ZM350.525 195.694L349.53 195.596L349.528 195.618L349.527 195.641L350.525 195.694ZM350.525 198.994H351.525V198.967L351.524 198.941L350.525 198.994ZM349.885 205.718L348.899 205.551V205.551L349.885 205.718ZM349.655 207.459L350.651 207.551L350.655 207.505V207.459H349.655ZM350.407 212.57L351.334 212.195L350.407 212.57ZM353.426 216.785L352.772 217.541L352.8 217.565L352.829 217.586L353.426 216.785ZM356.763 217.789V216.789H356.735L356.708 216.79L356.763 217.789ZM358.605 217.789V218.789H359.104L359.404 218.39L358.605 217.789ZM360.437 215.509L359.695 214.839L359.685 214.85L359.675 214.862L360.437 215.509ZM367.273 206.129L368.138 206.63L368.273 206.397V206.129H367.273ZM363.57 201.585L364.071 200.72L364.036 200.699L363.998 200.681L363.57 201.585ZM358.586 197.481L357.684 197.912L357.725 197.999L357.783 198.077L358.586 197.481ZM357.304 191.471L356.306 191.418L356.305 191.433L356.305 191.447L357.304 191.471ZM359.44 180.772L358.673 180.131L358.558 180.268L358.498 180.438L359.44 180.772ZM371.687 166.115L371.548 165.124L371.167 165.178L370.92 165.473L371.687 166.115ZM374.962 166.115L374.823 167.105L374.873 167.112L374.922 167.114L374.962 166.115ZM380.241 167.754L379.709 168.602L380.241 167.754ZM384.076 171.831L383.2 172.313L383.212 172.334L383.224 172.354L384.076 171.831ZM385.927 178.28L386.925 178.344L386.928 178.307L386.927 178.27L385.927 178.28ZM384.219 186.342L383.281 185.994L383.274 186.012L383.268 186.03L384.219 186.342ZM382.652 194.11L381.655 194.029L381.651 194.084L381.653 194.139L382.652 194.11ZM387.779 202.611L388.463 201.882L388.371 201.795L388.259 201.734L387.779 202.611ZM400.737 214.776L400.053 215.506L400.069 215.52L400.086 215.535L400.737 214.776ZM405.824 221.341L406.721 220.897L405.824 221.341ZM408 229.434L408.989 229.58L409.005 229.474L408.998 229.367L408 229.434ZM407.43 232.072L408.353 232.457L408.376 232.403L408.392 232.347L407.43 232.072ZM400.31 241.892L399.66 241.133L399.654 241.138L399.648 241.143L400.31 241.892ZM389.203 245.996L389.109 246.992L389.145 246.995L389.182 246.996L389.203 245.996ZM380.231 243.651L379.81 244.558L379.818 244.562L379.826 244.566L380.231 243.651ZM371.687 240.573L371.215 241.455L371.319 241.511L371.434 241.541L371.687 240.573ZM369.596 238.032L370.55 237.731V237.731L369.596 238.032ZM369.836 234.71L370.736 235.146L370.809 234.995L370.829 234.828L369.836 234.71ZM370.432 233.146L369.613 232.572V232.572L370.432 233.146ZM371.687 232.072L372.125 232.971L372.141 232.963L372.156 232.955L371.687 232.072ZM374.678 230.899V229.899H374.548L374.422 229.933L374.678 230.899ZM376.102 230.899L376.22 229.906L376.161 229.899H376.102V230.899ZM383.507 233.538L382.971 234.383L382.973 234.384L383.507 233.538ZM390.627 236.176L390.482 237.166L390.554 237.176H390.627V236.176ZM392.62 236.176V237.176H392.963L393.234 236.966L392.62 236.176ZM394.899 233.098L394.008 232.644L393.984 232.69L393.966 232.738L394.899 233.098ZM396.18 227.968L395.182 227.918L395.181 227.933L395.181 227.948L396.18 227.968ZM394.899 224.597L395.608 223.892L395.561 223.844L395.508 223.804L394.899 224.597ZM378.095 211.699L378.704 210.905L378.196 210.515L377.63 210.814L378.095 211.699ZM371.687 215.07L371.221 214.185L371.075 214.261L370.962 214.381L371.687 215.07ZM196.99 81.5887C197.093 75.6684 196.385 69.7619 194.885 64.0342L192.951 64.5408C194.404 70.0919 195.091 75.8162 194.99 81.5538L196.99 81.5887ZM192.791 106.096C195.526 98.2092 196.945 89.9252 196.99 81.5766L194.99 81.5659C194.946 89.6949 193.565 97.7612 190.901 105.441L192.791 106.096ZM183.989 115.034C187.254 112.554 190.166 109.64 192.643 106.373L191.049 105.164C188.682 108.287 185.9 111.072 182.78 113.441L183.989 115.034ZM175.238 111.573C176.534 114.169 179.467 115.238 183.385 115.238V113.238C179.705 113.238 177.802 112.232 177.027 110.68L175.238 111.573ZM174.741 109.172C174.723 109.985 174.887 110.793 175.22 111.535L177.045 110.718C176.833 110.246 176.729 109.732 176.74 109.214L174.741 109.172ZM175.319 106.831C174.955 107.559 174.758 108.359 174.741 109.172L176.74 109.214C176.751 108.697 176.877 108.188 177.108 107.725L175.319 106.831ZM176.843 104.964C176.203 105.466 175.682 106.104 175.319 106.831L177.108 107.725C177.339 107.262 177.67 106.856 178.077 106.537L176.843 104.964ZM179.02 103.929C178.227 104.108 177.483 104.462 176.843 104.964L178.077 106.537C178.484 106.218 178.957 105.994 179.461 105.88L179.02 103.929ZM182.014 100.768C181.303 102.163 180.173 103.299 178.782 104.016L179.699 105.793C181.462 104.884 182.895 103.444 183.796 101.675L182.014 100.768ZM182.742 96.2412C182.979 97.7891 182.725 99.3726 182.014 100.768L183.796 101.675C184.697 99.9068 185.019 97.8998 184.718 95.9379L182.742 96.2412ZM182.73 91.4231V96.0895H184.73V91.4231H182.73ZM182.73 87.2749V91.4231H184.73V87.2749H182.73ZM179.526 73.1404C181.399 77.6497 182.484 82.4481 182.731 87.3256L184.729 87.2243C184.47 82.1177 183.334 77.094 181.373 72.3729L179.526 73.1404ZM173.166 60.4135L179.555 73.2035L181.344 72.3098L174.955 59.5197L173.166 60.4135ZM161.719 48.4954C166.192 51.8458 170.083 55.9121 173.234 60.5302L174.886 59.4029C171.611 54.6032 167.567 50.3769 162.918 46.8946L161.719 48.4954ZM148.42 38.4692L161.716 48.4935L162.92 46.8965L149.624 36.8722L148.42 38.4692ZM102.056 27.9546C118.17 27.9092 134.083 31.5399 148.586 38.5705L149.458 36.7708C134.682 29.6076 118.469 25.9084 102.051 25.9546L102.056 27.9546ZM83.9434 29.6641C89.9051 28.4864 95.9702 27.9135 102.047 27.9546L102.06 25.9546C95.849 25.9127 89.6495 26.4982 83.5558 27.702L83.9434 29.6641ZM35.1136 52.314C49.9023 41.857 66.4669 34.1781 83.9996 29.6513L83.4996 27.7148C65.7321 32.3022 48.9456 40.084 33.9589 50.681L35.1136 52.314ZM16.0196 89.4374C17.3022 75.0113 24.1833 61.6632 35.186 52.2576L33.8865 50.7373C22.4859 60.4831 15.3563 74.3134 14.0275 89.2603L16.0196 89.4374ZM16.0236 95.7441V89.3489H14.0236V95.7441H16.0236ZM23.2818 119.734C18.5587 112.625 16.034 104.28 16.0236 95.7428L14.0236 95.7453C14.0344 104.675 16.6754 113.404 21.6159 120.84L23.2818 119.734ZM42.0905 136.69C34.5504 132.627 28.0972 126.808 23.2755 119.724L21.6222 120.85C26.6243 128.199 33.3191 134.235 41.1417 138.451L42.0905 136.69ZM74.032 154.764C62.2975 151.103 51.4743 144.988 42.2801 136.823L40.9521 138.318C50.3582 146.672 61.4311 152.928 73.4364 156.673L74.032 154.764ZM79.4653 158.25C77.5972 157.487 75.8872 156.382 74.4224 154.993L73.0461 156.444C74.6907 158.004 76.611 159.244 78.7091 160.101L79.4653 158.25ZM85.4611 161.076C83.5376 159.957 81.5208 159.007 79.4333 158.237L78.7411 160.114C80.72 160.844 82.6319 161.744 84.4553 162.805L85.4611 161.076ZM113.576 176.096L85.4294 161.059L84.487 162.823L112.634 177.86L113.576 176.096ZM138.1 198.702C131.677 189.478 123.318 181.768 113.608 176.113L112.602 177.842C122.06 183.35 130.202 190.859 136.459 199.845L138.1 198.702ZM141.906 217.573C141.772 211.185 140.522 204.869 138.212 198.912L136.347 199.635C138.573 205.375 139.777 211.46 139.906 217.615L141.906 217.573ZM140.693 226.509C141.684 223.625 142.096 220.574 141.904 217.531L139.908 217.657C140.083 220.437 139.707 223.225 138.801 225.859L140.693 226.509ZM136.128 234.332C138.15 232.051 139.702 229.392 140.693 226.509L138.801 225.859C137.896 228.492 136.479 230.921 134.632 233.005L136.128 234.332ZM117.294 250.21C124.995 246.795 131.559 241.247 136.214 234.22L134.546 233.116C130.103 239.824 123.835 245.121 116.484 248.382L117.294 250.21ZM92.7508 253.496C101.078 254.765 109.594 253.625 117.294 250.21L116.484 248.382C109.132 251.642 101.002 252.731 93.0522 251.519L92.7508 253.496ZM91.6065 253.206C91.9023 253.206 92.1943 253.274 92.46 253.405L93.343 251.61C92.8027 251.344 92.2087 251.206 91.6065 251.206V253.206ZM90.7527 253.405C91.0183 253.274 91.3105 253.206 91.6065 253.206V251.206C91.0043 251.206 90.41 251.344 89.8697 251.61L90.7527 253.405ZM87.3948 253.453C88.4453 253.815 89.587 253.815 90.6375 253.453L89.9848 251.562C89.3571 251.779 88.6751 251.779 88.0475 251.562L87.3948 253.453ZM75.6711 249.656L87.413 253.459L88.0292 251.556L76.2872 247.754L75.6711 249.656ZM64.1486 243.624C67.6213 246.272 71.5174 248.311 75.6711 249.656L76.2872 247.754C72.3486 246.478 68.6542 244.544 65.3612 242.033L64.1486 243.624ZM57.8103 239.377C59.4824 241.563 61.8422 243.12 64.5087 243.798L65.0012 241.859C62.7714 241.293 60.7976 239.99 59.3989 238.161L57.8103 239.377ZM55.294 231.752C55.2517 234.504 56.1383 237.191 57.8103 239.377L59.3989 238.161C58.0002 236.333 57.2584 234.085 57.2937 231.782L55.294 231.752ZM57.4669 221.823C55.9565 224.924 55.2115 228.342 55.2941 231.791L57.2936 231.743C57.2186 228.614 57.8946 225.512 59.2649 222.699L57.4669 221.823ZM61.7848 213.006L57.4678 221.821L59.264 222.701L63.5809 213.886L61.7848 213.006ZM66.0157 208.539C64.3052 209.669 62.8721 211.172 61.8234 212.935L63.5423 213.958C64.437 212.454 65.6596 211.172 67.1186 210.207L66.0157 208.539ZM71.7015 206.406C69.6698 206.679 67.7262 207.408 66.0157 208.539L67.1186 210.207C68.5776 209.243 70.2353 208.621 71.9681 208.388L71.7015 206.406ZM86.3447 209.917C81.7038 208.181 76.8737 207.001 71.9553 206.404L71.7142 208.39C76.4755 208.968 81.1512 210.109 85.6438 211.79L86.3447 209.917ZM100.308 214.748L86.3212 209.909L85.6673 211.799L99.6544 216.638L100.308 214.748ZM104.433 225.268C104.786 220.13 103.577 216.479 100.452 214.811L99.5104 216.575C101.566 217.672 102.774 220.243 102.437 225.13L104.433 225.268ZM101.856 230.065C102.78 228.642 103.609 227.16 104.338 225.629L102.532 224.769C101.841 226.221 101.054 227.627 100.179 228.975L101.856 230.065ZM98.0868 233.222C99.6821 232.626 101.022 231.496 101.881 230.024L100.154 229.016C99.5272 230.09 98.5495 230.914 97.3862 231.349L98.0868 233.222ZM88.1099 231.338C91.2098 232.319 94.4045 232.97 97.6409 233.281L97.832 231.29C94.7357 230.993 91.6792 230.37 88.7135 229.431L88.1099 231.338ZM78.8305 230.343C81.9602 230.065 85.1141 230.403 88.1138 231.339L88.7096 229.43C85.46 228.416 82.0435 228.049 78.6531 228.351L78.8305 230.343ZM79.7186 230.17C79.6746 229.97 79.6746 229.762 79.7186 229.561L77.765 229.133C77.6592 229.616 77.6592 230.116 77.765 230.598L79.7186 230.17ZM82.2977 232.601C81.3087 232.106 80.6374 231.644 80.2263 231.233C79.8172 230.824 79.7418 230.544 79.7418 230.384H77.7418C77.7418 231.261 78.1844 232.019 78.8115 232.647C79.4365 233.272 80.3194 233.847 81.4026 234.389L82.2977 232.601ZM102.218 236.298C95.3736 236.352 88.5831 235.085 82.2182 232.565L81.482 234.425C88.0862 237.04 95.1322 238.354 102.234 238.298L102.218 236.298ZM125.191 230.394C118.297 234.577 110.323 236.631 102.267 236.299L102.185 238.297C110.634 238.646 118.998 236.491 126.229 232.103L125.191 230.394ZM128.589 224.264C128.021 226.652 126.781 228.826 125.016 230.529L126.405 231.968C128.445 230 129.879 227.486 130.535 224.727L128.589 224.264ZM128.22 217.06C129.029 219.377 129.157 221.877 128.589 224.264L130.535 224.727C131.191 221.968 131.043 219.078 130.108 216.401L128.22 217.06ZM103.143 193.591C113.53 199.032 122.232 207.213 128.308 217.248L130.019 216.212C123.754 205.865 114.781 197.43 104.071 191.82L103.143 193.591ZM72.7219 176.291L103.113 193.575L104.102 191.836L73.7106 174.553L72.7219 176.291ZM60.5448 170.803L72.805 176.333L73.6274 174.51L61.3672 168.98L60.5448 170.803ZM48.7814 163.601C52.4444 166.385 56.3776 168.794 60.5218 170.792L61.3902 168.99C57.3667 167.051 53.5481 164.712 49.9917 162.009L48.7814 163.601ZM38.9237 158.687L48.939 163.699L49.8341 161.911L39.8188 156.898L38.9237 158.687ZM30.0484 152.987C32.641 155.451 35.6794 157.397 39.0008 158.721L39.7416 156.864C36.6567 155.634 33.8344 153.826 31.4262 151.537L30.0484 152.987ZM21.8594 146.329C24.7097 148.409 27.4491 150.637 30.0666 153.003L31.408 151.52C28.7387 149.106 25.945 146.834 23.0383 144.713L21.8594 146.329ZM6.30318 124.402C9.16516 133.102 14.5792 140.738 21.8397 146.314L23.058 144.728C16.1161 139.397 10.9395 132.096 8.20303 123.777L6.30318 124.402ZM0.0428171 103.805C0.849347 111.053 2.9936 118.088 6.36653 124.552L8.13967 123.627C4.88123 117.382 2.80972 110.586 2.03055 103.584L0.0428171 103.805ZM-0.999305 97.6363C-1.01831 99.8176 -0.647192 101.985 0.0966195 104.035L1.97675 103.353C1.31426 101.527 0.983689 99.5967 1.00062 97.6537L-0.999305 97.6363ZM0.776753 87.8293C-0.253615 90.9912 -0.850839 94.2781 -0.998359 97.6007L0.999673 97.6894C1.13918 94.5474 1.70394 91.4391 2.67833 88.449L0.776753 87.8293ZM2.45786 78.8929C2.19607 81.9299 1.63015 84.9328 0.768348 87.8564L2.68674 88.4219C3.58642 85.3698 4.17719 82.235 4.45047 79.0647L2.45786 78.8929ZM5.18311 71.0387C3.7705 73.4341 2.84611 76.0862 2.46366 78.8413L4.44467 79.1163C4.7908 76.6228 5.62742 74.2226 6.90587 72.0546L5.18311 71.0387ZM8.60341 64.1864L5.1499 71.0998L6.93908 71.9935L10.3926 65.0802L8.60341 64.1864ZM37.5562 32.3816C26.0901 41.1259 16.2973 51.8726 8.6501 64.1031L10.3459 65.1634C17.8654 53.1371 27.4946 42.57 38.769 33.9719L37.5562 32.3816ZM88.5872 10.0681C70.0243 13.2684 52.5134 20.9253 37.5545 32.3828L38.7707 33.9706C53.4728 22.7098 70.683 15.1844 88.927 12.039L88.5872 10.0681ZM101.802 9.01969L88.6784 10.0567L88.8359 12.0505L101.96 11.0135L101.802 9.01969ZM115.35 9.01658H101.881V11.0166H115.35V9.01658ZM132.897 11.3033C127.191 9.64469 121.265 8.87348 115.326 9.01687L115.374 11.0163C121.108 10.8778 126.83 11.6224 132.338 13.2238L132.897 11.3033ZM150.173 16.4907L132.905 11.3058L132.33 13.2213L149.598 18.4062L150.173 16.4907ZM179.084 35.9258C170.814 27.6684 161.033 21.0823 150.275 16.5276L149.495 18.3693C160.017 22.8239 169.583 29.2651 177.67 37.341L179.084 35.9258ZM194.897 64.0825C192.635 53.2849 187.106 43.4462 179.061 35.9039L177.693 37.3629C185.438 44.6243 190.761 54.0967 192.939 64.4926L194.897 64.0825ZM322.675 155.825C340.23 157.311 353.433 158.658 362.173 160.003L362.477 158.026C353.662 156.67 340.398 155.318 322.844 153.832L322.675 155.825ZM243.628 153.803C259.722 153.803 286.083 154.478 322.722 155.828L322.796 153.829C286.155 152.479 259.762 151.803 243.628 151.803V153.803ZM196.197 155.283C210.72 153.804 226.466 153.803 243.628 153.803V151.803C226.491 151.803 210.638 151.802 195.994 153.294L196.197 155.283ZM194.356 157.669C194.603 156.804 194.923 156.172 195.256 155.777C195.579 155.395 195.86 155.289 196.095 155.289V153.289C195.115 153.289 194.316 153.79 193.727 154.488C193.149 155.173 192.726 156.095 192.433 157.12L194.356 157.669ZM192.233 177.421C192.518 170.763 193.235 164.131 194.38 157.566L192.409 157.223C191.25 163.873 190.523 170.591 190.235 177.336L192.233 177.421ZM193.769 188.975C192.396 185.305 191.869 181.372 192.23 177.47L190.238 177.286C189.85 181.489 190.417 185.724 191.896 189.676L193.769 188.975ZM200.162 198.665C197.328 195.958 195.143 192.645 193.769 188.975L191.896 189.676C193.376 193.629 195.729 197.196 198.78 200.111L200.162 198.665ZM212.93 202.845C208.279 203.054 203.714 201.547 200.102 198.612L198.84 200.164C202.833 203.409 207.88 205.074 213.02 204.843L212.93 202.845ZM221.103 201.298C218.529 202.352 215.769 202.878 212.987 202.844L212.962 204.843C216.012 204.881 219.039 204.305 221.861 203.149L221.103 201.298ZM232.538 194.196C229.254 197.297 225.377 199.71 221.134 201.286L221.83 203.161C226.325 201.491 230.433 198.935 233.911 195.65L232.538 194.196ZM236.34 183.753C234.153 187.106 232.757 190.876 232.233 194.791L234.216 195.056C234.699 191.437 235.99 187.95 238.015 184.845L236.34 183.753ZM252.131 171.422C245.552 173.612 239.961 177.977 236.33 183.768L238.025 184.83C241.404 179.44 246.616 175.366 252.763 173.32L252.131 171.422ZM270.447 168.003C264.165 168.048 257.945 169.211 252.092 171.436L252.802 173.305C258.432 171.166 264.417 170.046 270.461 170.003L270.447 168.003ZM285.247 170.888C280.575 168.921 275.529 167.938 270.441 168.003L270.467 170.003C275.281 169.941 280.053 170.871 284.471 172.731L285.247 170.888ZM288.603 176.215L285.722 171.304L283.997 172.315L286.878 177.227L288.603 176.215ZM288.738 180.433C288.818 179.176 288.818 177.915 288.738 176.658L286.742 176.784C286.817 177.957 286.817 179.133 286.742 180.306L288.738 180.433ZM288.74 190.333V180.37H286.74V190.333H288.74ZM290.235 197.139C288.998 195.124 288.473 192.774 288.734 190.444L286.747 190.221C286.435 192.996 287.062 195.793 288.53 198.185L290.235 197.139ZM295.598 201.611C293.353 200.727 291.472 199.155 290.235 197.139L288.53 198.185C289.998 200.577 292.223 202.431 294.865 203.472L295.598 201.611ZM303.59 202.384C300.848 202.375 298.113 202.099 295.428 201.561L295.035 203.522C297.848 204.086 300.711 204.374 303.583 204.384L303.59 202.384ZM316.927 200.86C312.528 201.761 308.055 202.271 303.561 202.384L303.612 204.383C308.223 204.267 312.814 203.744 317.328 202.82L316.927 200.86ZM320 204.506C320 203.434 319.81 202.504 319.288 201.827C318.724 201.094 317.92 200.84 317.127 200.84V202.84C317.487 202.84 317.619 202.937 317.703 203.047C317.83 203.211 318 203.614 318 204.506H320ZM317.076 209.407C318.022 209.177 318.752 208.428 319.223 207.594C319.707 206.736 320 205.653 320 204.506H318C318 205.324 317.789 206.066 317.481 206.611C317.16 207.18 316.809 207.414 316.603 207.464L317.076 209.407ZM296.53 211.961C303.463 211.942 310.366 211.084 317.082 209.406L316.597 207.465C310.038 209.104 303.296 209.943 296.525 209.961L296.53 211.961ZM271.102 205.651C278.778 210.134 287.631 212.327 296.569 211.961L296.487 209.962C287.928 210.313 279.454 208.213 272.111 203.924L271.102 205.651ZM249.877 210.277C257.472 210.106 264.968 208.559 271.982 205.714L271.23 203.86C264.442 206.614 257.185 208.112 249.832 208.278L249.877 210.277ZM234.966 206.504C239.507 209.012 244.644 210.313 249.861 210.278L249.848 208.278C244.971 208.31 240.172 207.095 235.932 204.754L234.966 206.504ZM232.478 202.769C232.916 204.457 233.702 205.833 234.98 206.512L235.918 204.746C235.357 204.448 234.789 203.714 234.414 202.267L232.478 202.769ZM221.437 209.949C226.18 208.855 230.552 206.545 234.124 203.253L232.769 201.782C229.451 204.84 225.392 206.985 220.987 208L221.437 209.949ZM211.787 211.243C214.883 210.612 218.024 209.975 221.212 209.975V207.975C217.79 207.975 214.453 208.658 211.388 209.283L211.787 211.243ZM207.868 211.987C209.15 211.78 210.466 211.512 211.787 211.243L211.388 209.283C210.059 209.554 208.784 209.814 207.549 210.013L207.868 211.987ZM180.965 192.809C183.959 202.076 192.89 208.429 207.472 211.972L207.944 210.028C193.629 206.55 185.545 200.48 182.868 192.194L180.965 192.809ZM177.922 185.399C179.148 187.773 180.166 190.249 180.962 192.799L182.871 192.203C182.04 189.542 180.979 186.958 179.699 184.481L177.922 185.399ZM177.814 179.991C177.667 181.667 177.667 183.352 177.814 185.027L179.807 184.852C179.67 183.293 179.67 181.725 179.807 180.166L177.814 179.991ZM178.767 167.916C178.175 171.94 177.855 176 177.811 180.068L179.811 180.09C179.854 176.112 180.167 172.142 180.745 168.207L178.767 167.916ZM180.38 155.961C180.248 157.542 179.714 161.559 178.767 167.914L180.745 168.209C181.689 161.872 182.235 157.786 182.373 156.127L180.38 155.961ZM179.357 155.572L180.707 156.787L182.045 155.301L180.695 154.086L179.357 155.572ZM152.344 155.829H180.026V153.829H152.344V155.829ZM125.336 155.829H152.344V153.829H125.336V155.829ZM70.0455 150.813C88.2495 154.454 106.791 156.135 125.353 155.829L125.32 153.829C106.901 154.133 88.5018 152.464 70.4377 148.852L70.0455 150.813ZM66.0007 144.972C66.0007 145.914 66.3753 146.849 66.9789 147.754C67.5851 148.664 68.4647 149.607 69.5831 150.585L70.9001 149.08C69.8579 148.168 69.1171 147.356 68.6429 146.645C68.1662 145.93 68.0007 145.38 68.0007 144.972H66.0007ZM66.3092 143.345C66.0942 143.867 65.9893 144.428 66.0009 144.992L68.0004 144.951C67.9945 144.662 68.0483 144.374 68.1586 144.106L66.3092 143.345ZM67.2506 141.958C66.8448 142.35 66.5243 142.823 66.3092 143.345L68.1586 144.106C68.2688 143.839 68.4333 143.596 68.6414 143.395L67.2506 141.958ZM70.8295 139.163C69.4233 139.853 68.1787 140.832 67.1771 142.037L68.7149 143.316C69.5365 142.328 70.5574 141.524 71.7108 140.958L70.8295 139.163ZM75.3375 138.031C73.772 138.087 72.2358 138.472 70.8295 139.163L71.7108 140.958C72.8643 140.392 74.1244 140.076 75.4086 140.03L75.3375 138.031ZM85.3197 141.267C82.2915 139.546 78.9497 138.448 75.4908 138.038L75.2552 140.024C78.4493 140.403 81.5352 141.416 84.3314 143.006L85.3197 141.267ZM94.4491 143.302C91.2733 143.618 88.0798 142.908 85.3367 141.277L84.3144 142.996C87.4248 144.845 91.0461 145.65 94.6472 145.292L94.4491 143.302ZM138.159 146.267C123.616 146.349 109.087 145.36 94.6893 143.307L94.407 145.287C108.902 147.354 123.529 148.35 138.17 148.267L138.159 146.267ZM181.917 146.267H138.165V148.267H181.917V146.267ZM185.335 142.516C184.686 143.879 184.036 144.848 183.421 145.463C182.807 146.077 182.303 146.267 181.917 146.267V148.267C183.015 148.267 183.997 147.715 184.835 146.877C185.671 146.041 186.439 144.85 187.141 143.376L185.335 142.516ZM191.802 124.725C189.27 130.568 187.092 136.558 185.279 142.662L187.196 143.231C188.986 137.204 191.137 131.289 193.637 125.52L191.802 124.725ZM198.104 107.027C196.398 113.06 194.293 118.972 191.802 124.725L193.637 125.52C196.163 119.685 198.298 113.689 200.028 107.571L198.104 107.027ZM199.997 104.735C199.174 105.254 198.528 106.012 198.146 106.907L199.986 107.691C200.208 107.17 200.584 106.729 201.063 106.427L199.997 104.735ZM202.756 104.005C201.784 103.962 200.821 104.216 199.997 104.735L201.063 106.427C201.542 106.126 202.102 105.978 202.668 106.003L202.756 104.005ZM206.521 105.056C205.37 104.371 204.055 104.007 202.715 104.004L202.709 106.004C203.691 106.006 204.654 106.273 205.498 106.775L206.521 105.056ZM209.261 107.9C208.619 106.724 207.673 105.742 206.521 105.056L205.498 106.775C206.342 107.277 207.035 107.997 207.506 108.859L209.261 107.9ZM201.626 137.889C205.114 128.37 207.707 118.545 209.37 108.543L207.397 108.215C205.754 118.094 203.193 127.798 199.748 137.201L201.626 137.889ZM199.519 145.261C199.223 142.727 199.926 140.178 201.48 138.154L199.893 136.936C198.023 139.373 197.176 142.442 197.533 145.493L199.519 145.261ZM199.336 144.377H198.526V146.377H199.336V144.377ZM264.964 144.377H199.336V146.377H264.964V144.377ZM330.824 147.217C312.826 145.458 290.782 144.377 264.964 144.377V146.377C290.729 146.377 312.707 147.456 330.629 149.208L330.824 147.217ZM347.559 148.702L330.815 147.216L330.638 149.208L347.383 150.694L347.559 148.702ZM363.537 154.526C358.712 151.451 353.275 149.465 347.603 148.707L347.338 150.689C352.721 151.409 357.883 153.293 362.463 156.212L363.537 154.526ZM363.308 159.197L363.983 155.551L362.017 155.187L361.342 158.833L363.308 159.197ZM274.538 179.967C272.98 176.424 268.78 174.879 262.531 174.879V176.879C268.67 176.879 271.674 178.422 272.708 180.772L274.538 179.967ZM274.609 179.934L274.321 179.653L272.925 181.086L273.214 181.367L274.609 179.934ZM273.193 184.14C274.052 183.216 274.64 182.079 274.891 180.85L272.931 180.45C272.755 181.315 272.34 182.12 271.728 182.777L273.193 184.14ZM270.017 186.1C271.235 185.74 272.333 185.063 273.193 184.14L271.728 182.777C271.116 183.436 270.329 183.922 269.45 184.182L270.017 186.1ZM267.072 189.554C267.622 188.047 268.733 186.787 270.194 186.028L269.273 184.253C267.376 185.238 265.918 186.882 265.193 188.867L267.072 189.554ZM264.329 196.724L267.066 189.568L265.198 188.853L262.461 196.01L264.329 196.724ZM258.044 202.752C260.754 201.529 262.958 199.438 264.287 196.82L262.503 195.915C261.385 198.119 259.523 199.89 257.222 200.929L258.044 202.752ZM255.616 202.84H257.633V200.84H255.616V202.84ZM250.622 201.686C252.131 202.676 253.961 203.083 255.756 202.83L255.477 200.85C254.159 201.035 252.819 200.736 251.719 200.014L250.622 201.686ZM247.588 197.455C248.028 199.189 249.112 200.696 250.622 201.686L251.719 200.014C250.62 199.293 249.841 198.204 249.527 196.963L247.588 197.455ZM247.575 193.934C247.356 195.078 247.356 196.253 247.575 197.397L249.54 197.021C249.368 196.125 249.368 195.206 249.54 194.31L247.575 193.934ZM251.858 182.135C249.835 185.835 248.392 189.81 247.577 193.928L249.539 194.316C250.314 190.399 251.687 186.617 253.613 183.095L251.858 182.135ZM262.179 174.943C258.243 176.425 254.741 178.832 251.986 181.953L253.485 183.277C256.022 180.404 259.249 178.183 262.883 176.815L262.179 174.943ZM357.71 227.581C358.655 226.757 359.553 225.883 360.4 224.964L358.929 223.609C358.132 224.475 357.286 225.298 356.396 226.074L357.71 227.581ZM343.65 227.765C348.083 229.412 352.968 229.412 357.401 227.765L356.705 225.89C352.721 227.37 348.33 227.37 344.346 225.89L343.65 227.765ZM338.812 221.149C339.8 223.607 341.348 225.805 343.333 227.574L344.663 226.081C342.907 224.516 341.54 222.573 340.667 220.403L338.812 221.149ZM337.634 213.404C337.42 216.041 337.823 218.691 338.812 221.149L340.667 220.403C339.794 218.233 339.439 215.893 339.628 213.566L337.634 213.404ZM338.803 201.424C338.189 205.406 337.798 209.419 337.632 213.444L339.63 213.526C339.793 209.576 340.177 205.637 340.78 201.729L338.803 201.424ZM336.728 199.98C337.49 200.106 338.023 200.343 338.347 200.617C338.64 200.866 338.791 201.166 338.791 201.576H340.791C340.791 200.552 340.362 199.704 339.64 199.092C338.949 198.505 338.031 198.168 337.053 198.007L336.728 199.98ZM323.316 202.288C328.002 202.004 332.643 201.223 337.16 199.957L336.62 198.031C332.24 199.259 327.739 200.017 323.195 200.291L323.316 202.288ZM319.797 200.016C319.751 200.381 319.748 200.822 319.946 201.236C320.166 201.696 320.547 201.952 320.922 202.087C321.264 202.21 321.647 202.251 322 202.27C322.364 202.29 322.793 202.289 323.255 202.289V200.289C322.775 200.289 322.406 200.289 322.108 200.273C321.799 200.256 321.656 200.225 321.599 200.205C321.576 200.196 321.685 200.237 321.751 200.374C321.794 200.465 321.755 200.476 321.782 200.267L319.797 200.016ZM317.74 195.893C318.56 197.37 319.266 198.906 319.852 200.488L321.727 199.795C321.107 198.116 320.358 196.487 319.488 194.921L317.74 195.893ZM316.164 190.429C316.247 192.352 316.789 194.227 317.745 195.903L319.482 194.911C318.684 193.512 318.232 191.946 318.162 190.342L316.164 190.429ZM316.189 187.292C315.937 188.384 315.937 189.518 316.189 190.61L318.138 190.161C317.954 189.364 317.954 188.537 318.138 187.741L316.189 187.292ZM319.157 179.492C317.997 182 317.011 184.584 316.207 187.225L318.12 187.808C318.898 185.254 319.851 182.756 320.972 180.331L319.157 179.492ZM323.263 172.616C321.343 174.594 319.92 176.992 319.109 179.616L321.02 180.207C321.737 177.885 322.997 175.762 324.698 174.008L323.263 172.616ZM327.942 172.37C326.553 171.877 325.035 171.877 323.646 172.37L324.315 174.254C325.271 173.915 326.317 173.915 327.272 174.254L327.942 172.37ZM331.217 181.88C331.119 179.448 330.847 177.441 330.377 175.891C329.914 174.365 329.212 173.128 328.133 172.462L327.081 174.163C327.55 174.452 328.056 175.129 328.463 176.472C328.864 177.792 329.124 179.61 329.219 181.961L331.217 181.88ZM333.844 186.946C333.032 186.946 332.448 186.625 332.013 185.917C331.536 185.14 331.218 183.849 331.218 181.92H329.218C329.218 184.009 329.552 185.731 330.309 186.963C331.107 188.264 332.336 188.946 333.844 188.946V186.946ZM336.878 186.959C335.925 187.111 334.955 187.111 334.002 186.959L333.687 188.934C334.848 189.119 336.032 189.119 337.193 188.934L336.878 186.959ZM344.125 184.794C341.414 184.843 338.77 185.643 336.495 187.105L337.576 188.788C339.538 187.527 341.82 186.836 344.161 186.794L344.125 184.794ZM348.431 185.942C347.134 185.161 345.639 184.763 344.122 184.794L344.164 186.794C345.304 186.77 346.426 187.069 347.398 187.655L348.431 185.942ZM350.883 188.643C350.338 187.537 349.493 186.604 348.443 185.95L347.385 187.647C348.12 188.105 348.71 188.757 349.088 189.526L350.883 188.643ZM351.52 192.211C351.648 190.986 351.427 189.75 350.883 188.643L349.088 189.526C349.466 190.295 349.62 191.153 349.531 192.003L351.52 192.211ZM351.521 195.792C351.644 194.534 351.644 193.267 351.521 192.009L349.53 192.205C349.641 193.333 349.641 194.468 349.53 195.596L351.521 195.792ZM351.524 198.941C351.468 197.877 351.468 196.811 351.524 195.747L349.527 195.641C349.467 196.776 349.467 197.912 349.527 199.047L351.524 198.941ZM350.871 205.886C351.13 204.356 351.525 202.032 351.525 198.994H349.525C349.525 201.855 349.155 204.041 348.899 205.551L350.871 205.886ZM350.655 207.459C350.655 207.178 350.732 206.702 350.871 205.885L348.899 205.551C348.775 206.279 348.655 206.966 348.655 207.459H350.655ZM351.334 212.195C350.739 210.722 350.505 209.131 350.651 207.551L348.659 207.367C348.484 209.264 348.765 211.176 349.48 212.945L351.334 212.195ZM354.081 216.028C352.871 214.982 351.93 213.669 351.334 212.195L349.48 212.945C350.195 214.714 351.324 216.289 352.772 217.541L354.081 216.028ZM356.708 216.79C355.744 216.843 354.793 216.556 354.024 215.983L352.829 217.586C353.974 218.441 355.387 218.865 356.817 218.787L356.708 216.79ZM358.605 216.789H356.763V218.789H358.605V216.789ZM359.404 218.39C359.918 217.707 360.516 216.961 361.199 216.157L359.675 214.862C358.969 215.692 358.347 216.469 357.806 217.188L359.404 218.39ZM361.179 216.18C363.821 213.258 366.153 210.057 368.138 206.63L366.407 205.628C364.492 208.934 362.243 212.022 359.695 214.839L361.179 216.18ZM368.273 206.129C368.273 203.777 366.377 202.055 364.071 200.72L363.069 202.45C365.32 203.754 366.273 204.962 366.273 206.129H368.273ZM363.998 200.681C362.187 199.823 360.604 198.521 359.389 196.885L357.783 198.077C359.191 199.973 361.03 201.488 363.142 202.489L363.998 200.681ZM359.488 197.05C358.665 195.325 358.258 193.419 358.304 191.495L356.305 191.447C356.251 193.684 356.723 195.902 357.684 197.912L359.488 197.05ZM358.303 191.525C358.495 187.965 359.196 184.454 360.383 181.106L358.498 180.438C357.246 183.967 356.508 187.667 356.306 191.418L358.303 191.525ZM360.208 181.413L372.454 166.756L370.92 165.473L358.673 180.131L360.208 181.413ZM371.826 167.105C372.821 166.965 373.829 166.965 374.823 167.105L375.102 165.124C373.923 164.959 372.727 164.959 371.548 165.124L371.826 167.105ZM374.922 167.114C376.613 167.182 378.261 167.693 379.709 168.602L380.772 166.907C379.031 165.815 377.045 165.197 375.003 165.115L374.922 167.114ZM379.709 168.602C381.158 169.51 382.361 170.787 383.2 172.313L384.952 171.349C383.951 169.529 382.513 167.999 380.772 166.907L379.709 168.602ZM383.224 172.354C384.315 174.13 384.906 176.185 384.927 178.29L386.927 178.27C386.902 175.805 386.211 173.394 384.928 171.307L383.224 172.354ZM384.929 178.217C384.76 180.88 384.204 183.501 383.281 185.994L385.156 186.689C386.148 184.013 386.744 181.2 386.925 178.344L384.929 178.217ZM383.268 186.03C382.419 188.62 381.877 191.305 381.655 194.029L383.649 194.191C383.858 191.624 384.368 189.093 385.169 186.653L383.268 186.03ZM381.653 194.139C381.708 196.066 382.258 197.945 383.248 199.587L384.96 198.554C384.15 197.21 383.697 195.667 383.652 194.081L381.653 194.139ZM383.248 199.587C384.238 201.229 385.634 202.576 387.298 203.488L388.259 201.734C386.91 200.994 385.771 199.898 384.96 198.554L383.248 199.587ZM387.094 203.34L400.053 215.506L401.422 214.047L388.463 201.882L387.094 203.34ZM400.086 215.535C402.091 217.259 403.739 219.385 404.928 221.785L406.721 220.897C405.414 218.259 403.601 215.919 401.389 214.018L400.086 215.535ZM404.928 221.785C406.118 224.185 406.823 226.81 407.002 229.5L408.998 229.367C408.802 226.416 408.027 223.535 406.721 220.897L404.928 221.785ZM407.011 229.288C406.885 230.136 406.705 230.974 406.469 231.797L408.392 232.347C408.652 231.44 408.851 230.515 408.989 229.58L407.011 229.288ZM406.508 231.687C404.98 235.351 402.633 238.587 399.66 241.133L400.961 242.652C404.174 239.9 406.707 236.406 408.353 232.457L406.508 231.687ZM399.648 241.143C396.748 243.708 393.036 245.078 389.224 244.997L389.182 246.996C393.504 247.088 397.702 245.535 400.973 242.641L399.648 241.143ZM389.296 245.001C386.313 244.72 383.39 243.956 380.636 242.737L379.826 244.566C382.776 245.872 385.909 246.691 389.109 246.992L389.296 245.001ZM380.653 242.744C377.843 241.439 374.928 240.389 371.94 239.606L371.434 241.541C374.306 242.293 377.108 243.303 379.81 244.558L380.653 242.744ZM372.159 239.692C371.401 239.285 370.819 238.584 370.55 237.731L368.642 238.333C369.066 239.673 369.986 240.797 371.215 241.455L372.159 239.692ZM370.55 237.731C370.28 236.877 370.348 235.948 370.736 235.146L368.936 234.274C368.324 235.537 368.219 236.993 368.642 238.333L370.55 237.731ZM370.829 234.828C370.877 234.426 371.022 234.045 371.25 233.72L369.613 232.572C369.194 233.17 368.929 233.865 368.843 234.592L370.829 234.828ZM371.25 233.72C371.478 233.396 371.78 233.139 372.125 232.971L371.249 231.173C370.595 231.491 370.033 231.974 369.613 232.572L371.25 233.72ZM372.156 232.955C373.04 232.486 373.971 232.121 374.933 231.866L374.422 229.933C373.311 230.226 372.236 230.648 371.218 231.189L372.156 232.955ZM374.678 231.899H376.102V229.899H374.678V231.899ZM375.984 231.892C378.46 232.187 380.845 233.036 382.971 234.383L384.042 232.693C381.665 231.188 378.995 230.236 376.22 229.906L375.984 231.892ZM382.973 234.384C385.264 235.828 387.819 236.776 390.482 237.166L390.772 235.187C388.387 234.837 386.096 233.989 384.04 232.692L382.973 234.384ZM390.627 237.176H392.62V235.176H390.627V237.176ZM393.234 236.966C394.398 236.06 395.296 234.846 395.832 233.458L393.966 232.738C393.559 233.792 392.88 234.708 392.007 235.387L393.234 236.966ZM395.79 233.551C396.666 231.831 397.141 229.927 397.18 227.988L395.181 227.948C395.147 229.587 394.745 231.195 394.008 232.644L395.79 233.551ZM397.179 228.018C397.217 227.257 397.097 226.496 396.827 225.785L394.958 226.496C395.129 226.947 395.206 227.432 395.182 227.918L397.179 228.018ZM396.827 225.785C396.557 225.074 396.142 224.428 395.608 223.892L394.19 225.302C394.524 225.638 394.786 226.044 394.958 226.496L396.827 225.785ZM395.508 223.804L378.704 210.905L377.486 212.492L394.29 225.39L395.508 223.804ZM377.63 210.814L371.221 214.185L372.153 215.955L378.561 212.584L377.63 210.814ZM370.962 214.381C368.391 217.09 366.133 219.176 364.186 220.665C362.224 222.165 360.643 223.009 359.421 223.316L359.909 225.256C361.517 224.851 363.354 223.818 365.401 222.254C367.461 220.678 369.799 218.512 372.412 215.758L370.962 214.381Z" fill="#A5711E"/>
<path d="M255.781 81.9297H241.461V97H236.961V62.875H258.102V66.5781H241.461V78.25H255.781V81.9297ZM289.742 81.0391C289.742 84.3828 289.18 87.3047 288.055 89.8047C286.93 92.2891 285.336 94.1875 283.273 95.5C281.211 96.8125 278.805 97.4688 276.055 97.4688C273.367 97.4688 270.984 96.8125 268.906 95.5C266.828 94.1719 265.211 92.2891 264.055 89.8516C262.914 87.3984 262.328 84.5625 262.297 81.3438V78.8828C262.297 75.6016 262.867 72.7031 264.008 70.1875C265.148 67.6719 266.758 65.75 268.836 64.4219C270.93 63.0781 273.32 62.4062 276.008 62.4062C278.742 62.4062 281.148 63.0703 283.227 64.3984C285.32 65.7109 286.93 67.625 288.055 70.1406C289.18 72.6406 289.742 75.5547 289.742 78.8828V81.0391ZM285.266 78.8359C285.266 74.7891 284.453 71.6875 282.828 69.5312C281.203 67.3594 278.93 66.2734 276.008 66.2734C273.164 66.2734 270.922 67.3594 269.281 69.5312C267.656 71.6875 266.82 74.6875 266.773 78.5312V81.0391C266.773 84.9609 267.594 88.0469 269.234 90.2969C270.891 92.5312 273.164 93.6484 276.055 93.6484C278.961 93.6484 281.211 92.5938 282.805 90.4844C284.398 88.3594 285.219 85.3203 285.266 81.3672V78.8359ZM309.008 83.1953H300.992V97H296.469V62.875H307.766C311.609 62.875 314.562 63.75 316.625 65.5C318.703 67.25 319.742 69.7969 319.742 73.1406C319.742 75.2656 319.164 77.1172 318.008 78.6953C316.867 80.2734 315.273 81.4531 313.227 82.2344L321.242 96.7188V97H316.414L309.008 83.1953ZM300.992 79.5156H307.906C310.141 79.5156 311.914 78.9375 313.227 77.7812C314.555 76.625 315.219 75.0781 315.219 73.1406C315.219 71.0312 314.586 69.4141 313.32 68.2891C312.07 67.1641 310.258 66.5938 307.883 66.5781H300.992V79.5156Z" fill="url(#paint3_linear)"/>
<path d="M255.781 81.9297V82.9297H256.781V81.9297H255.781ZM241.461 81.9297V80.9297H240.461V81.9297H241.461ZM241.461 97V98H242.461V97H241.461ZM236.961 97H235.961V98H236.961V97ZM236.961 62.875V61.875H235.961V62.875H236.961ZM258.102 62.875H259.102V61.875H258.102V62.875ZM258.102 66.5781V67.5781H259.102V66.5781H258.102ZM241.461 66.5781V65.5781H240.461V66.5781H241.461ZM241.461 78.25H240.461V79.25H241.461V78.25ZM255.781 78.25H256.781V77.25H255.781V78.25ZM255.781 80.9297H241.461V82.9297H255.781V80.9297ZM240.461 81.9297V97H242.461V81.9297H240.461ZM241.461 96H236.961V98H241.461V96ZM237.961 97V62.875H235.961V97H237.961ZM236.961 63.875H258.102V61.875H236.961V63.875ZM257.102 62.875V66.5781H259.102V62.875H257.102ZM258.102 65.5781H241.461V67.5781H258.102V65.5781ZM240.461 66.5781V78.25H242.461V66.5781H240.461ZM241.461 79.25H255.781V77.25H241.461V79.25ZM254.781 78.25V81.9297H256.781V78.25H254.781ZM288.055 89.8047L288.966 90.2172L288.967 90.2151L288.055 89.8047ZM268.906 95.5L268.368 96.3426L268.372 96.3455L268.906 95.5ZM264.055 89.8516L263.148 90.2732L263.151 90.2801L264.055 89.8516ZM262.297 81.3438H261.297L261.297 81.3535L262.297 81.3438ZM268.836 64.4219L269.374 65.2645L269.376 65.2635L268.836 64.4219ZM283.227 64.3984L282.688 65.2411L282.695 65.2457L283.227 64.3984ZM288.055 70.1406L287.142 70.5489L287.143 70.551L288.055 70.1406ZM282.828 69.5312L282.027 70.1303L282.03 70.1331L282.828 69.5312ZM269.281 69.5312L268.483 68.9285L268.483 68.9294L269.281 69.5312ZM266.773 78.5312L265.773 78.5191V78.5312H266.773ZM269.234 90.2969L268.426 90.8861L268.431 90.8924L269.234 90.2969ZM282.805 90.4844L283.603 91.0872L283.605 91.0844L282.805 90.4844ZM285.266 81.3672L286.266 81.379V81.3672H285.266ZM288.742 81.0391C288.742 84.2717 288.198 87.0484 287.143 89.3943L288.967 90.2151C290.161 87.5609 290.742 84.4939 290.742 81.0391H288.742ZM287.144 89.3922C286.089 91.7207 284.617 93.46 282.737 94.6563L283.81 96.3437C286.055 94.915 287.77 92.8574 288.966 90.2172L287.144 89.3922ZM282.737 94.6563C280.854 95.8544 278.639 96.4688 276.055 96.4688V98.4688C278.97 98.4688 281.568 97.7706 283.81 96.3437L282.737 94.6563ZM276.055 96.4688C273.538 96.4688 271.344 95.8567 269.44 94.6545L268.372 96.3455C270.625 97.7683 273.196 98.4688 276.055 98.4688V96.4688ZM269.445 94.6574C267.539 93.4397 266.042 91.7075 264.958 89.423L263.151 90.2801C264.38 92.8707 266.117 94.9041 268.368 96.3426L269.445 94.6574ZM264.961 89.4299C263.891 87.1281 263.327 84.4371 263.297 81.334L261.297 81.3535C261.329 84.6879 261.937 87.6688 263.148 90.2732L264.961 89.4299ZM263.297 81.3438V78.8828H261.297V81.3438H263.297ZM263.297 78.8828C263.297 75.7176 263.847 72.9643 264.919 70.6005L263.097 69.7745C261.888 72.442 261.297 75.4855 261.297 78.8828H263.297ZM264.919 70.6005C265.989 68.2392 267.478 66.4762 269.374 65.2645L268.297 63.5793C266.037 65.0238 264.308 67.1046 263.097 69.7745L264.919 70.6005ZM269.376 65.2635C271.296 64.0315 273.496 63.4062 276.008 63.4062V61.4062C273.145 61.4062 270.564 62.1248 268.296 63.5803L269.376 65.2635ZM276.008 63.4062C278.573 63.4062 280.788 64.0267 282.688 65.2411L283.765 63.5558C281.509 62.1139 278.912 61.4062 276.008 61.4062V63.4062ZM282.695 65.2457C284.602 66.441 286.088 68.1926 287.142 70.5489L288.968 69.7324C287.771 67.0574 286.038 64.9808 283.758 63.5512L282.695 65.2457ZM287.143 70.551C288.199 72.8974 288.742 75.6665 288.742 78.8828H290.742C290.742 75.4429 290.161 72.3838 288.967 69.7303L287.143 70.551ZM288.742 78.8828V81.0391H290.742V78.8828H288.742ZM286.266 78.8359C286.266 74.675 285.433 71.3265 283.627 68.9294L282.03 70.1331C283.473 72.0485 284.266 74.9032 284.266 78.8359H286.266ZM283.629 68.9322C281.799 66.4862 279.217 65.2734 276.008 65.2734V67.2734C278.643 67.2734 280.608 68.2326 282.027 70.1303L283.629 68.9322ZM276.008 65.2734C272.867 65.2734 270.323 66.4936 268.483 68.9285L270.079 70.134C271.521 68.2251 273.461 67.2734 276.008 67.2734V65.2734ZM268.483 68.9294C266.685 71.3143 265.822 74.5496 265.774 78.5191L267.773 78.5434C267.819 74.8254 268.627 72.0607 270.08 70.1331L268.483 68.9294ZM265.773 78.5312V81.0391H267.773V78.5312H265.773ZM265.773 81.0391C265.773 85.0888 266.619 88.4077 268.426 90.886L270.042 89.7077C268.568 87.686 267.773 84.8331 267.773 81.0391H265.773ZM268.431 90.8924C270.284 93.3927 272.862 94.6484 276.055 94.6484V92.6484C273.466 92.6484 271.497 91.6698 270.038 89.7014L268.431 90.8924ZM276.055 94.6484C279.239 94.6484 281.799 93.474 283.603 91.0872L282.007 89.8815C280.623 91.7135 278.683 92.6484 276.055 92.6484V94.6484ZM283.605 91.0844C285.374 88.7247 286.217 85.4459 286.266 81.379L284.266 81.3553C284.22 85.1947 283.422 87.994 282.005 89.8844L283.605 91.0844ZM286.266 81.3672V78.8359H284.266V81.3672H286.266ZM309.008 83.1953L309.889 82.7226L309.606 82.1953H309.008V83.1953ZM300.992 83.1953V82.1953H299.992V83.1953H300.992ZM300.992 97V98H301.992V97H300.992ZM296.469 97H295.469V98H296.469V97ZM296.469 62.875V61.875H295.469V62.875H296.469ZM316.625 65.5L315.978 66.2625L315.981 66.2649L316.625 65.5ZM318.008 78.6953L317.201 78.1043L317.197 78.1095L318.008 78.6953ZM313.227 82.2344L312.87 81.3001L311.794 81.7108L312.352 82.7186L313.227 82.2344ZM321.242 96.7188H322.242V96.4605L322.117 96.2346L321.242 96.7188ZM321.242 97V98H322.242V97H321.242ZM316.414 97L315.533 97.4728L315.816 98H316.414V97ZM300.992 79.5156H299.992V80.5156H300.992V79.5156ZM313.227 77.7812L312.57 77.027L312.566 77.0309L313.227 77.7812ZM313.32 68.2891L312.651 69.0324L312.656 69.0365L313.32 68.2891ZM307.883 66.5781L307.889 65.5781H307.883V66.5781ZM300.992 66.5781V65.5781H299.992V66.5781H300.992ZM309.008 82.1953H300.992V84.1953H309.008V82.1953ZM299.992 83.1953V97H301.992V83.1953H299.992ZM300.992 96H296.469V98H300.992V96ZM297.469 97V62.875H295.469V97H297.469ZM296.469 63.875H307.766V61.875H296.469V63.875ZM307.766 63.875C311.471 63.875 314.159 64.7193 315.978 66.2625L317.272 64.7375C314.966 62.7807 311.748 61.875 307.766 61.875V63.875ZM315.981 66.2649C317.782 67.7817 318.742 70.0175 318.742 73.1406H320.742C320.742 69.5762 319.624 66.7183 317.269 64.7351L315.981 66.2649ZM318.742 73.1406C318.742 75.0724 318.221 76.7126 317.201 78.1043L318.814 79.2863C320.107 77.5218 320.742 75.4588 320.742 73.1406H318.742ZM317.197 78.1095C316.185 79.5105 314.758 80.5793 312.87 81.3001L313.583 83.1686C315.789 82.3269 317.55 81.0364 318.818 79.2811L317.197 78.1095ZM312.352 82.7186L320.367 97.2029L322.117 96.2346L314.102 81.7502L312.352 82.7186ZM320.242 96.7188V97H322.242V96.7188H320.242ZM321.242 96H316.414V98H321.242V96ZM317.295 96.5272L309.889 82.7226L308.127 83.6681L315.533 97.4728L317.295 96.5272ZM300.992 80.5156H307.906V78.5156H300.992V80.5156ZM307.906 80.5156C310.315 80.5156 312.346 79.8894 313.888 78.5316L312.566 77.0309C311.482 77.9856 309.967 78.5156 307.906 78.5156V80.5156ZM313.883 78.5355C315.453 77.1689 316.219 75.3348 316.219 73.1406H314.219C314.219 74.8215 313.656 76.0811 312.57 77.027L313.883 78.5355ZM316.219 73.1406C316.219 70.8213 315.514 68.9015 313.985 67.5417L312.656 69.0365C313.657 69.9267 314.219 71.2412 314.219 73.1406H316.219ZM313.989 67.5458C312.494 66.2005 310.409 65.5947 307.889 65.5781L307.876 67.5781C310.107 67.5928 311.646 68.1277 312.651 69.0324L313.989 67.5458ZM307.883 65.5781H300.992V67.5781H307.883V65.5781ZM299.992 66.5781V79.5156H301.992V66.5781H299.992Z" fill="#A0711F"/>
</g>
<defs>
<linearGradient id="paint0_linear" x1="550.544" y1="53.6673" x2="442.462" y2="402.852" gradientUnits="userSpaceOnUse">
<stop offset="0.20442" stop-color="#B58034"/>
<stop offset="0.314917" stop-color="#FCF082"/>
<stop offset="0.458564" stop-color="#B58034"/>
<stop offset="0.679558" stop-color="#FCF082"/>
<stop offset="0.81768" stop-color="#B58034"/>
</linearGradient>
<linearGradient id="paint1_linear" x1="446" y1="92" x2="288" y2="283" gradientUnits="userSpaceOnUse">
<stop offset="0.220994" stop-color="#B58034"/>
<stop offset="0.39779" stop-color="#FCF082"/>
<stop offset="0.569061" stop-color="#B58034" stop-opacity="0.3"/>
<stop offset="0.729282" stop-color="white" stop-opacity="0"/>
</linearGradient>
<linearGradient id="paint2_linear" x1="193.598" y1="141.659" x2="206.401" y2="252.723" gradientUnits="userSpaceOnUse">
<stop stop-color="#E6D667"/>
<stop offset="0.430939" stop-color="#A36623"/>
<stop offset="1" stop-color="#FBED84"/>
</linearGradient>
<linearGradient id="paint3_linear" x1="278" y1="52" x2="278" y2="109" gradientUnits="userSpaceOnUse">
<stop offset="0.138122" stop-color="#B58034"/>
<stop offset="0.209945" stop-color="#FCF082"/>
<stop offset="0.823204" stop-color="#B58034"/>
</linearGradient>
<clipPath id="clip0">
<rect width="525" height="294" fill="white"/>
</clipPath>
</defs>
</svg>
